<svg width="89" height="89" viewBox="0 0 89 89" fill="none" xmlns="http://www.w3.org/2000/svg">
<rect x="2" y="2" width="84" height="84" rx="42" stroke="#A2D5F2" stroke-width="4"/>
<path fill-rule="evenodd" clip-rule="evenodd" d="M12.9061 75.1315C13.7176 75.9453 14.5626 76.7289 15.4395 77.4801C21.6023 82.759 29.1048 86.2309 37.1176 87.5118C45.1305 88.7928 53.3415 87.833 60.8428 84.7385C68.3442 81.644 74.8438 76.5354 79.6229 69.9774C84.402 63.4195 87.2745 55.6677 87.9228 47.5791C88.5712 39.4904 86.9701 31.38 83.2966 24.1446C81.1815 19.9787 78.4269 16.1962 75.1509 12.9255C72.737 10.5156 70.0402 8.38353 67.1076 6.58059C60.1949 2.33075 52.2416 0.0752861 44.127 0.0635679L44.1213 4.00018C66.1569 4.06562 84 21.9491 84 44C84 66.0914 66.0914 84 44 84C26.2314 84 11.1688 72.4143 5.95433 56.3851L2.19742 57.5998C4.33859 64.2222 8.01472 70.2261 12.9061 75.1315Z" fill="#07689F"/>
<path d="M26.516 49.5L32.42 38.088H25.706V36.81H34.094V37.926L28.154 49.5H26.516ZM40.693 49.662C39.241 49.662 38.137 49.104 37.381 47.988C36.625 46.872 36.247 45.258 36.247 43.146C36.247 41.022 36.625 39.408 37.381 38.304C38.137 37.2 39.241 36.648 40.693 36.648C42.157 36.648 43.261 37.2 44.005 38.304C44.761 39.396 45.139 41.004 45.139 43.128C45.139 45.252 44.755 46.872 43.987 47.988C43.231 49.104 42.133 49.662 40.693 49.662ZM40.693 48.384C41.701 48.384 42.445 47.958 42.925 47.106C43.417 46.254 43.663 44.928 43.663 43.128C43.663 41.328 43.423 40.014 42.943 39.186C42.463 38.346 41.713 37.926 40.693 37.926C39.685 37.926 38.935 38.346 38.443 39.186C37.963 40.026 37.723 41.34 37.723 43.128C37.723 44.928 37.963 46.254 38.443 47.106C38.935 47.958 39.685 48.384 40.693 48.384ZM51.2339 49.95L50.2079 49.356L57.6779 36.36L58.6859 36.954L51.2339 49.95ZM50.1539 44.424C49.1939 44.424 48.4439 44.082 47.9039 43.398C47.3639 42.714 47.0939 41.76 47.0939 40.536C47.0939 39.312 47.3639 38.364 47.9039 37.692C48.4439 37.008 49.1939 36.666 50.1539 36.666C51.1019 36.666 51.8459 37.008 52.3859 37.692C52.9379 38.364 53.2139 39.312 53.2139 40.536C53.2139 41.76 52.9379 42.714 52.3859 43.398C51.8459 44.082 51.1019 44.424 50.1539 44.424ZM50.1539 43.362C50.7059 43.362 51.1439 43.128 51.4679 42.66C51.7919 42.18 51.9539 41.472 51.9539 40.536C51.9539 39.6 51.7919 38.898 51.4679 38.43C51.1439 37.962 50.7059 37.728 50.1539 37.728C49.5899 37.728 49.1459 37.962 48.8219 38.43C48.5099 38.898 48.3539 39.6 48.3539 40.536C48.3539 41.472 48.5099 42.18 48.8219 42.66C49.1459 43.128 49.5899 43.362 50.1539 43.362ZM58.7579 49.662C57.8099 49.662 57.0599 49.32 56.5079 48.636C55.9679 47.952 55.6979 46.998 55.6979 45.774C55.6979 44.562 55.9679 43.614 56.5079 42.93C57.0599 42.246 57.8099 41.904 58.7579 41.904C59.7179 41.904 60.4679 42.246 61.0079 42.93C61.5479 43.614 61.8179 44.562 61.8179 45.774C61.8179 46.998 61.5479 47.952 61.0079 48.636C60.4679 49.32 59.7179 49.662 58.7579 49.662ZM58.7579 48.6C59.3219 48.6 59.7599 48.366 60.0719 47.898C60.3959 47.418 60.5579 46.71 60.5579 45.774C60.5579 44.838 60.3959 44.136 60.0719 43.668C59.7599 43.2 59.3219 42.966 58.7579 42.966C58.2059 42.966 57.7679 43.2 57.4439 43.668C57.1319 44.136 56.9759 44.838 56.9759 45.774C56.9759 46.722 57.1319 47.43 57.4439 47.898C57.7679 48.366 58.2059 48.6 58.7579 48.6Z" fill="#07689F"/>
</svg>
