<svg width="32" height="32" viewBox="0 0 32 32" fill="none" xmlns="http://www.w3.org/2000/svg">
<g clip-path="url(#clip0_15_259)">
<path d="M18 16H10" stroke="#172126" stroke-width="1.5" stroke-linecap="round" stroke-linejoin="round"/>
<path d="M18 16H10" stroke="black" stroke-opacity="0.2" stroke-width="1.5" stroke-linecap="round" stroke-linejoin="round"/>
<path d="M6.06121 27.6601C5.9909 27.8521 5.98115 28.0611 6.03328 28.2588C6.08541 28.4566 6.19691 28.6336 6.35275 28.766C6.50859 28.8984 6.70128 28.9799 6.90484 28.9994C7.10841 29.0189 7.31306 28.9755 7.49121 28.8751L28.4912 16.8639C28.6475 16.7774 28.7778 16.6506 28.8685 16.4967C28.9592 16.3428 29.0071 16.1675 29.0071 15.9889C29.0071 15.8102 28.9592 15.6349 28.8685 15.481C28.7778 15.3271 28.6475 15.2003 28.4912 15.1139L7.49121 3.1326C7.31359 3.03326 7.1099 2.99048 6.90732 3.00997C6.70475 3.02945 6.51295 3.11028 6.35753 3.24166C6.2021 3.37303 6.09046 3.5487 6.03752 3.7452C5.98457 3.9417 5.99283 4.14967 6.06121 4.34135L9.99996 16.0001L6.06121 27.6601Z" stroke="#172126" stroke-width="1.5" stroke-linecap="round" stroke-linejoin="round"/>
<path d="M6.06121 27.6601C5.9909 27.8521 5.98115 28.0611 6.03328 28.2588C6.08541 28.4566 6.19691 28.6336 6.35275 28.766C6.50859 28.8984 6.70128 28.9799 6.90484 28.9994C7.10841 29.0189 7.31306 28.9755 7.49121 28.8751L28.4912 16.8639C28.6475 16.7774 28.7778 16.6506 28.8685 16.4967C28.9592 16.3428 29.0071 16.1675 29.0071 15.9889C29.0071 15.8102 28.9592 15.6349 28.8685 15.481C28.7778 15.3271 28.6475 15.2003 28.4912 15.1139L7.49121 3.1326C7.31359 3.03326 7.1099 2.99048 6.90732 3.00997C6.70475 3.02945 6.51295 3.11028 6.35753 3.24166C6.2021 3.37303 6.09046 3.5487 6.03752 3.7452C5.98457 3.9417 5.99283 4.14967 6.06121 4.34135L9.99996 16.0001L6.06121 27.6601Z" stroke="black" stroke-opacity="0.2" stroke-width="1.5" stroke-linecap="round" stroke-linejoin="round"/>
</g>
<defs>
<clipPath id="clip0_15_259">
<rect width="32" height="32" fill="white"/>
</clipPath>
</defs>
</svg>
