<svg width="24" height="24" viewBox="0 0 24 24" fill="none" xmlns="http://www.w3.org/2000/svg">
<g clip-path="url(#clip0_64_267)">
<path d="M9 18C9 18.7956 9.31607 19.5587 9.87868 20.1213C10.4413 20.6839 11.2044 21 12 21C12.7956 21 13.5587 20.6839 14.1213 20.1213C14.6839 19.5587 15 18.7956 15 18" stroke="#172126" stroke-width="1.5" stroke-linecap="round" stroke-linejoin="round"/>
<path d="M9 18C9 18.7956 9.31607 19.5587 9.87868 20.1213C10.4413 20.6839 11.2044 21 12 21C12.7956 21 13.5587 20.6839 14.1213 20.1213C14.6839 19.5587 15 18.7956 15 18" stroke="black" stroke-opacity="0.2" stroke-width="1.5" stroke-linecap="round" stroke-linejoin="round"/>
<path d="M5.24988 9.75C5.24988 7.95979 5.96104 6.2429 7.22691 4.97703C8.49278 3.71116 10.2097 3 11.9999 3C13.7901 3 15.507 3.71116 16.7729 4.97703C18.0387 6.2429 18.7499 7.95979 18.7499 9.75C18.7499 13.1081 19.528 15.8063 20.1468 16.875C20.2125 16.9888 20.2471 17.1179 20.2472 17.2493C20.2474 17.3808 20.2129 17.5099 20.1474 17.6239C20.0819 17.7378 19.9876 17.8325 19.874 17.8985C19.7603 17.9645 19.6313 17.9995 19.4999 18H4.49988C4.36861 17.9992 4.23985 17.964 4.12646 17.8978C4.01308 17.8317 3.91904 17.7369 3.85375 17.6231C3.78845 17.5092 3.7542 17.3801 3.7544 17.2489C3.75459 17.1176 3.78925 16.9887 3.85488 16.875C4.4727 15.8063 5.24988 13.1072 5.24988 9.75Z" stroke="#172126" stroke-width="1.5" stroke-linecap="round" stroke-linejoin="round"/>
<path d="M5.24988 9.75C5.24988 7.95979 5.96104 6.2429 7.22691 4.97703C8.49278 3.71116 10.2097 3 11.9999 3C13.7901 3 15.507 3.71116 16.7729 4.97703C18.0387 6.2429 18.7499 7.95979 18.7499 9.75C18.7499 13.1081 19.528 15.8063 20.1468 16.875C20.2125 16.9888 20.2471 17.1179 20.2472 17.2493C20.2474 17.3808 20.2129 17.5099 20.1474 17.6239C20.0819 17.7378 19.9876 17.8325 19.874 17.8985C19.7603 17.9645 19.6313 17.9995 19.4999 18H4.49988C4.36861 17.9992 4.23985 17.964 4.12646 17.8978C4.01308 17.8317 3.91904 17.7369 3.85375 17.6231C3.78845 17.5092 3.7542 17.3801 3.7544 17.2489C3.75459 17.1176 3.78925 16.9887 3.85488 16.875C4.4727 15.8063 5.24988 13.1072 5.24988 9.75Z" stroke="black" stroke-opacity="0.2" stroke-width="1.5" stroke-linecap="round" stroke-linejoin="round"/>
</g>
<defs>
<clipPath id="clip0_64_267">
<rect width="24" height="24" fill="white"/>
</clipPath>
</defs>
</svg>
