<svg width="16" height="16" viewBox="0 0 16 16" fill="none" xmlns="http://www.w3.org/2000/svg">
<g clip-path="url(#clip0_234_3849)">
<path d="M8 5.5C8 4.96957 8.21071 4.46086 8.58579 4.08579C8.96086 3.71071 9.46957 3.5 10 3.5H14.5V12.5H10C9.46957 12.5 8.96086 12.7107 8.58579 13.0858C8.21071 13.4609 8 13.9696 8 14.5" stroke="#172126" stroke-width="1.5" stroke-linecap="round" stroke-linejoin="round"/>
<path d="M8 5.5C8 4.96957 8.21071 4.46086 8.58579 4.08579C8.96086 3.71071 9.46957 3.5 10 3.5H14.5V12.5H10C9.46957 12.5 8.96086 12.7107 8.58579 13.0858C8.21071 13.4609 8 13.9696 8 14.5" stroke="black" stroke-opacity="0.2" stroke-width="1.5" stroke-linecap="round" stroke-linejoin="round"/>
<path d="M1.5 12.5H6C6.53043 12.5 7.03914 12.7107 7.41421 13.0858C7.78929 13.4609 8 13.9696 8 14.5V5.5C8 4.96957 7.78929 4.46086 7.41421 4.08579C7.03914 3.71071 6.53043 3.5 6 3.5H1.5V12.5Z" stroke="#172126" stroke-width="1.5" stroke-linecap="round" stroke-linejoin="round"/>
<path d="M1.5 12.5H6C6.53043 12.5 7.03914 12.7107 7.41421 13.0858C7.78929 13.4609 8 13.9696 8 14.5V5.5C8 4.96957 7.78929 4.46086 7.41421 4.08579C7.03914 3.71071 6.53043 3.5 6 3.5H1.5V12.5Z" stroke="black" stroke-opacity="0.2" stroke-width="1.5" stroke-linecap="round" stroke-linejoin="round"/>
<path d="M10 6H12.5" stroke="#172126" stroke-width="1.5" stroke-linecap="round" stroke-linejoin="round"/>
<path d="M10 6H12.5" stroke="black" stroke-opacity="0.2" stroke-width="1.5" stroke-linecap="round" stroke-linejoin="round"/>
<path d="M10 8H12.5" stroke="#172126" stroke-width="1.5" stroke-linecap="round" stroke-linejoin="round"/>
<path d="M10 8H12.5" stroke="black" stroke-opacity="0.2" stroke-width="1.5" stroke-linecap="round" stroke-linejoin="round"/>
<path d="M10 10H12.5" stroke="#172126" stroke-width="1.5" stroke-linecap="round" stroke-linejoin="round"/>
<path d="M10 10H12.5" stroke="black" stroke-opacity="0.2" stroke-width="1.5" stroke-linecap="round" stroke-linejoin="round"/>
</g>
<defs>
<clipPath id="clip0_234_3849">
<rect width="16" height="16" fill="white"/>
</clipPath>
</defs>
</svg>
