<svg width="24" height="24" viewBox="0 0 24 24" fill="none" xmlns="http://www.w3.org/2000/svg">
<g clip-path="url(#clip0_64_383)">
<path d="M0.75 9L12 3L23.25 9L12 15L0.75 9Z" stroke="#172126" stroke-width="1.5" stroke-linecap="round" stroke-linejoin="round"/>
<path d="M0.75 9L12 3L23.25 9L12 15L0.75 9Z" stroke="black" stroke-opacity="0.2" stroke-width="1.5" stroke-linecap="round" stroke-linejoin="round"/>
<path d="M12 9L17.25 11.8003V22.5" stroke="#172126" stroke-width="1.5" stroke-linecap="round" stroke-linejoin="round"/>
<path d="M12 9L17.25 11.8003V22.5" stroke="black" stroke-opacity="0.2" stroke-width="1.5" stroke-linecap="round" stroke-linejoin="round"/>
<path d="M20.25 10.6003V15.5897C20.2504 15.773 20.1837 15.9501 20.0625 16.0875C19.0031 17.2678 16.4156 19.5 12 19.5C7.58438 19.5 4.99875 17.2678 3.9375 16.0875C3.81628 15.9501 3.74958 15.773 3.75 15.5897V10.6003" stroke="#172126" stroke-width="1.5" stroke-linecap="round" stroke-linejoin="round"/>
<path d="M20.25 10.6003V15.5897C20.2504 15.773 20.1837 15.9501 20.0625 16.0875C19.0031 17.2678 16.4156 19.5 12 19.5C7.58438 19.5 4.99875 17.2678 3.9375 16.0875C3.81628 15.9501 3.74958 15.773 3.75 15.5897V10.6003" stroke="black" stroke-opacity="0.2" stroke-width="1.5" stroke-linecap="round" stroke-linejoin="round"/>
</g>
<defs>
<clipPath id="clip0_64_383">
<rect width="24" height="24" fill="white"/>
</clipPath>
</defs>
</svg>
