<svg width="32" height="32" viewBox="0 0 32 32" fill="none" xmlns="http://www.w3.org/2000/svg">
<g clip-path="url(#clip0_12_180)">
<path d="M17.6725 8.08511L19.0475 6.71011C19.5887 6.1688 20.2312 5.7394 20.9383 5.44644C21.6455 5.15347 22.4034 5.00269 23.1688 5.00269C23.9342 5.00269 24.6921 5.15347 25.3993 5.44644C26.1064 5.7394 26.7489 6.1688 27.29 6.71011C27.8313 7.25126 28.2607 7.89375 28.5537 8.60089C28.8467 9.30802 28.9975 10.0659 28.9975 10.8314C28.9975 11.5968 28.8467 12.3547 28.5537 13.0618C28.2607 13.769 27.8313 14.4115 27.29 14.9526L24.2425 18.0001L22.95 19.2926C22.4083 19.8345 21.7649 20.2642 21.0569 20.5572C20.3489 20.8502 19.59 21.0007 18.8237 21.0001C18.0575 20.9996 17.2988 20.8479 16.5913 20.5538C15.8837 20.2598 15.241 19.829 14.7 19.2864C14.1401 18.7266 13.7005 18.0583 13.4081 17.3226C13.1158 16.5868 12.9769 15.799 13 15.0076" stroke="#172126" stroke-width="1.5" stroke-linecap="round" stroke-linejoin="round"/>
<path d="M17.6725 8.08511L19.0475 6.71011C19.5887 6.1688 20.2312 5.7394 20.9383 5.44644C21.6455 5.15347 22.4034 5.00269 23.1688 5.00269C23.9342 5.00269 24.6921 5.15347 25.3993 5.44644C26.1064 5.7394 26.7489 6.1688 27.29 6.71011C27.8313 7.25126 28.2607 7.89375 28.5537 8.60089C28.8467 9.30802 28.9975 10.0659 28.9975 10.8314C28.9975 11.5968 28.8467 12.3547 28.5537 13.0618C28.2607 13.769 27.8313 14.4115 27.29 14.9526L24.2425 18.0001L22.95 19.2926C22.4083 19.8345 21.7649 20.2642 21.0569 20.5572C20.3489 20.8502 19.59 21.0007 18.8237 21.0001C18.0575 20.9996 17.2988 20.8479 16.5913 20.5538C15.8837 20.2598 15.241 19.829 14.7 19.2864C14.1401 18.7266 13.7005 18.0583 13.4081 17.3226C13.1158 16.5868 12.9769 15.799 13 15.0076" stroke="black" stroke-opacity="0.2" stroke-width="1.5" stroke-linecap="round" stroke-linejoin="round"/>
<path d="M14.3275 23.9149L12.9525 25.2899C12.4107 25.8318 11.7674 26.2615 11.0593 26.5545C10.3513 26.8475 9.59244 26.998 8.82618 26.9975C8.05992 26.9969 7.30128 26.8452 6.59369 26.5511C5.8861 26.2571 5.24344 25.8264 4.70248 25.2837C3.61246 24.1899 3.00104 22.7082 3.00244 21.164C3.00385 19.6198 3.61797 18.1393 4.70998 17.0474L9.04998 12.7074C9.59113 12.1661 10.2336 11.7367 10.9408 11.4438C11.6479 11.1508 12.4058 11 13.1712 11C13.9366 11 14.6946 11.1508 15.4017 11.4438C16.1088 11.7367 16.7513 12.1661 17.2925 12.7074C17.8547 13.2671 18.2963 13.9361 18.59 14.6731C18.8837 15.4101 19.0232 16.1994 19 16.9924" stroke="#172126" stroke-width="1.5" stroke-linecap="round" stroke-linejoin="round"/>
<path d="M14.3275 23.9149L12.9525 25.2899C12.4107 25.8318 11.7674 26.2615 11.0593 26.5545C10.3513 26.8475 9.59244 26.998 8.82618 26.9975C8.05992 26.9969 7.30128 26.8452 6.59369 26.5511C5.8861 26.2571 5.24344 25.8264 4.70248 25.2837C3.61246 24.1899 3.00104 22.7082 3.00244 21.164C3.00385 19.6198 3.61797 18.1393 4.70998 17.0474L9.04998 12.7074C9.59113 12.1661 10.2336 11.7367 10.9408 11.4438C11.6479 11.1508 12.4058 11 13.1712 11C13.9366 11 14.6946 11.1508 15.4017 11.4438C16.1088 11.7367 16.7513 12.1661 17.2925 12.7074C17.8547 13.2671 18.2963 13.9361 18.59 14.6731C18.8837 15.4101 19.0232 16.1994 19 16.9924" stroke="black" stroke-opacity="0.2" stroke-width="1.5" stroke-linecap="round" stroke-linejoin="round"/>
</g>
<defs>
<clipPath id="clip0_12_180">
<rect width="32" height="32" fill="white"/>
</clipPath>
</defs>
</svg>
