<svg width="32" height="32" viewBox="0 0 32 32" fill="none" xmlns="http://www.w3.org/2000/svg">
<g clip-path="url(#clip0_12_179)">
<path d="M20.0001 9.99997L9.58637 20.5862C9.22043 20.9632 9.01751 21.469 9.02146 21.9944C9.02542 22.5197 9.23593 23.0224 9.6075 23.3938C9.97908 23.7652 10.4819 23.9755 11.0072 23.9792C11.5326 23.983 12.0383 23.7798 12.4151 23.4137L24.8289 10.8287C25.5791 10.0785 26.0006 9.06096 26.0006 7.99997C26.0006 6.93898 25.5791 5.92145 24.8289 5.17122C24.0786 4.42099 23.0611 3.99951 22.0001 3.99951C20.9391 3.99951 19.9216 4.42099 19.1714 5.17122L6.75762 17.7575C5.64754 18.8858 5.02827 20.407 5.03472 21.9898C5.04116 23.5727 5.67279 25.0888 6.79203 26.2081C7.91126 27.3273 9.42742 27.9589 11.0102 27.9654C12.5931 27.9718 14.1143 27.3525 15.2426 26.2425L25.5001 16" stroke="#172126" stroke-width="1.5" stroke-linecap="round" stroke-linejoin="round"/>
<path d="M20.0001 9.99997L9.58637 20.5862C9.22043 20.9632 9.01751 21.469 9.02146 21.9944C9.02542 22.5197 9.23593 23.0224 9.6075 23.3938C9.97908 23.7652 10.4819 23.9755 11.0072 23.9792C11.5326 23.983 12.0383 23.7798 12.4151 23.4137L24.8289 10.8287C25.5791 10.0785 26.0006 9.06096 26.0006 7.99997C26.0006 6.93898 25.5791 5.92145 24.8289 5.17122C24.0786 4.42099 23.0611 3.99951 22.0001 3.99951C20.9391 3.99951 19.9216 4.42099 19.1714 5.17122L6.75762 17.7575C5.64754 18.8858 5.02827 20.407 5.03472 21.9898C5.04116 23.5727 5.67279 25.0888 6.79203 26.2081C7.91126 27.3273 9.42742 27.9589 11.0102 27.9654C12.5931 27.9718 14.1143 27.3525 15.2426 26.2425L25.5001 16" stroke="black" stroke-opacity="0.2" stroke-width="1.5" stroke-linecap="round" stroke-linejoin="round"/>
</g>
<defs>
<clipPath id="clip0_12_179">
<rect width="32" height="32" fill="white"/>
</clipPath>
</defs>
</svg>
