<svg width="24" height="24" viewBox="0 0 24 24" fill="none" xmlns="http://www.w3.org/2000/svg">
<g clip-path="url(#clip0_4_90)">
<path d="M12 18C12.6213 18 13.125 17.4963 13.125 16.875C13.125 16.2537 12.6213 15.75 12 15.75C11.3787 15.75 10.875 16.2537 10.875 16.875C10.875 17.4963 11.3787 18 12 18Z" fill="#172126"/>
<path d="M12 18C12.6213 18 13.125 17.4963 13.125 16.875C13.125 16.2537 12.6213 15.75 12 15.75C11.3787 15.75 10.875 16.2537 10.875 16.875C10.875 17.4963 11.3787 18 12 18Z" fill="black" fill-opacity="0.2"/>
<path d="M12 13.5V12.75C13.6566 12.75 15 11.5744 15 10.125C15 8.67562 13.6566 7.5 12 7.5C10.3434 7.5 9 8.67562 9 10.125V10.5" stroke="#172126" stroke-width="1.2" stroke-linecap="round" stroke-linejoin="round"/>
<path d="M12 13.5V12.75C13.6566 12.75 15 11.5744 15 10.125C15 8.67562 13.6566 7.5 12 7.5C10.3434 7.5 9 8.67562 9 10.125V10.5" stroke="black" stroke-opacity="0.2" stroke-width="1.2" stroke-linecap="round" stroke-linejoin="round"/>
<path d="M12 21C16.9706 21 21 16.9706 21 12C21 7.02944 16.9706 3 12 3C7.02944 3 3 7.02944 3 12C3 16.9706 7.02944 21 12 21Z" stroke="#172126" stroke-width="1.2" stroke-linecap="round" stroke-linejoin="round"/>
<path d="M12 21C16.9706 21 21 16.9706 21 12C21 7.02944 16.9706 3 12 3C7.02944 3 3 7.02944 3 12C3 16.9706 7.02944 21 12 21Z" stroke="black" stroke-opacity="0.2" stroke-width="1.2" stroke-linecap="round" stroke-linejoin="round"/>
</g>
<defs>
<clipPath id="clip0_4_90">
<rect width="24" height="24" fill="white"/>
</clipPath>
</defs>
</svg>
