<svg width="32" height="32" viewBox="0 0 32 32" fill="none" xmlns="http://www.w3.org/2000/svg">
<g clip-path="url(#clip0_4_71)">
<path d="M10 16.8588L21.2825 26.7501C21.4125 26.8647 21.57 26.9437 21.7397 26.9791C21.9093 27.0145 22.0853 27.0052 22.2503 26.9522C22.4152 26.8991 22.5636 26.8041 22.6808 26.6764C22.798 26.5487 22.88 26.3928 22.9188 26.2238L28 4.15258C28.005 4.13045 28.0038 4.10738 27.9967 4.08586C27.9895 4.06433 27.9766 4.04516 27.9594 4.03039C27.9422 4.01562 27.9213 4.00581 27.899 4.00201C27.8766 3.99821 27.8536 4.00057 27.8325 4.00883L2.5 13.9226C2.34274 13.9831 2.20935 14.093 2.11986 14.2358C2.03038 14.3786 1.98962 14.5465 2.0037 14.7145C2.01779 14.8824 2.08596 15.0412 2.19799 15.1671C2.31002 15.293 2.45985 15.3791 2.625 15.4126L10 16.8588Z" stroke="#172126" stroke-width="1.5" stroke-linecap="round" stroke-linejoin="round"/>
<path d="M10 16.8588L21.2825 26.7501C21.4125 26.8647 21.57 26.9437 21.7397 26.9791C21.9093 27.0145 22.0853 27.0052 22.2503 26.9522C22.4152 26.8991 22.5636 26.8041 22.6808 26.6764C22.798 26.5487 22.88 26.3928 22.9188 26.2238L28 4.15258C28.005 4.13045 28.0038 4.10738 27.9967 4.08586C27.9895 4.06433 27.9766 4.04516 27.9594 4.03039C27.9422 4.01562 27.9213 4.00581 27.899 4.00201C27.8766 3.99821 27.8536 4.00057 27.8325 4.00883L2.5 13.9226C2.34274 13.9831 2.20935 14.093 2.11986 14.2358C2.03038 14.3786 1.98962 14.5465 2.0037 14.7145C2.01779 14.8824 2.08596 15.0412 2.19799 15.1671C2.31002 15.293 2.45985 15.3791 2.625 15.4126L10 16.8588Z" stroke="black" stroke-opacity="0.2" stroke-width="1.5" stroke-linecap="round" stroke-linejoin="round"/>
<path d="M10 16.8587L27.9263 4.01123" stroke="#172126" stroke-width="1.5" stroke-linecap="round" stroke-linejoin="round"/>
<path d="M10 16.8587L27.9263 4.01123" stroke="black" stroke-opacity="0.2" stroke-width="1.5" stroke-linecap="round" stroke-linejoin="round"/>
<path d="M15.5463 21.7224L11.72 25.6924C11.5817 25.8358 11.4038 25.9347 11.209 25.9763C11.0141 26.018 10.8113 26.0005 10.6265 25.9261C10.4417 25.8517 10.2833 25.7237 10.1717 25.5587C10.0601 25.3937 10.0003 25.1991 10 24.9999V16.8586" stroke="#172126" stroke-width="1.5" stroke-linecap="round" stroke-linejoin="round"/>
<path d="M15.5463 21.7224L11.72 25.6924C11.5817 25.8358 11.4038 25.9347 11.209 25.9763C11.0141 26.018 10.8113 26.0005 10.6265 25.9261C10.4417 25.8517 10.2833 25.7237 10.1717 25.5587C10.0601 25.3937 10.0003 25.1991 10 24.9999V16.8586" stroke="black" stroke-opacity="0.2" stroke-width="1.5" stroke-linecap="round" stroke-linejoin="round"/>
</g>
<defs>
<clipPath id="clip0_4_71">
<rect width="32" height="32" fill="white"/>
</clipPath>
</defs>
</svg>
